<?xml version="1.0" encoding="iso-8859-1"?>
<!-- Uploaded to: SVG Repo, www.svgrepo.com, Generator: SVG Repo Mixer Tools -->
<svg height="800px" width="800px" version="1.1" id="Layer_1" xmlns="http://www.w3.org/2000/svg" xmlns:xlink="http://www.w3.org/1999/xlink" 
	 viewBox="0 0 368 368" xml:space="preserve">
<circle style="fill:#80D440;" cx="184" cy="184" r="176"/>
<path style="fill:#6EA62A;" d="M184,368C82.4,368,0,285.6,0,184S82.4,0,184,0s184,82.4,184,184S285.6,368,184,368z M184,16
	C91.2,16,16,91.2,16,184s75.2,168,168,168s168-75.2,168-168S276.8,16,184,16z"/>
<path style="fill:#67CB1B;" d="M238.4,25.2c44.4,30,73.6,81.2,73.6,138.8c0,92.8-75.2,168-168,168c-19.2,0-37.2-3.2-54.4-9.2
	c26.8,18.4,59.6,29.2,94.4,29.2c92.8,0,168-75.2,168-168C352,110.4,304.4,47.6,238.4,25.2z"/>
<g>
	<path style="fill:#FFFFFF;" d="M184,284c-4.4,0-8-3.6-8-8V92c0-4.4,3.6-8,8-8s8,3.6,8,8v184C192,280.4,188.4,284,184,284z"/>
	<path style="fill:#FFFFFF;" d="M276,192H92c-4.4,0-8-3.6-8-8s3.6-8,8-8h184c4.4,0,8,3.6,8,8S280.4,192,276,192z"/>
</g>
</svg>