<?xml version="1.0" encoding="iso-8859-1"?>
<!-- Generator: Adobe Illustrator 16.0.0, SVG Export Plug-In . SVG Version: 6.00 Build 0)  -->
<!DOCTYPE svg PUBLIC "-//W3C//DTD SVG 1.1//EN" "http://www.w3.org/Graphics/SVG/1.1/DTD/svg11.dtd">
<svg version="1.1" id="Capa_1" xmlns="http://www.w3.org/2000/svg" xmlns:xlink="http://www.w3.org/1999/xlink" x="0px" y="0px"
	 width="319.107px" height="319.106px" viewBox="0 0 319.107 319.106" style="enable-background:new 0 0 319.107 319.106;"
	 xml:space="preserve">
<g>
	<g>
		<path d="M172.787,161.974v40.376c0,7.302-5.921,13.222-13.226,13.222s-13.219-5.926-13.219-13.222v-40.376
			c-17.048,5.602-29.469,21.484-29.469,40.376c0,23.526,19.149,42.682,42.688,42.682c23.53,0,42.673-19.155,42.673-42.682
			C202.234,183.464,189.823,167.581,172.787,161.974z"/>
		<path d="M309.222,303.494l-35.885-196.023c-1.159-6.278-6.63-10.842-13.013-10.842h-83.406V81.662h108.254
			c7.302,0,13.217-5.927,13.217-13.22V13.231C298.389,5.927,292.474,0,285.172,0c-7.308,0-13.229,5.927-13.229,13.231v41.985H55.441
			V13.231C55.441,5.927,49.526,0,42.228,0c-7.305,0-13.226,5.927-13.226,13.231v55.211c0,7.299,5.921,13.22,13.226,13.22h108.246
			v14.967H57.408c-6.425,0-11.917,4.611-13.027,10.932L9.865,303.59c-0.676,3.85,0.387,7.807,2.897,10.791
			c2.513,2.996,6.227,4.726,10.133,4.726h273.32c3.934,0,7.645-1.729,10.16-4.75C308.879,311.33,309.936,307.361,309.222,303.494z
			 M159.555,271.488c-38.124,0-69.139-31.021-69.139-69.139s31.015-69.127,69.139-69.127c38.109,0,69.124,31.009,69.124,69.127
			S197.665,271.488,159.555,271.488z"/>
	</g>
</g>
<g>
</g>
<g>
</g>
<g>
</g>
<g>
</g>
<g>
</g>
<g>
</g>
<g>
</g>
<g>
</g>
<g>
</g>
<g>
</g>
<g>
</g>
<g>
</g>
<g>
</g>
<g>
</g>
<g>
</g>
</svg>
