<?xml version="1.0" encoding="UTF-8"?>
<svg xmlns="http://www.w3.org/2000/svg" xmlns:xlink="http://www.w3.org/1999/xlink" width="100px" height="100px" viewBox="0 0 100 100" version="1.1">
<g id="surface1">
<path style=" stroke:none;fill-rule:nonzero;fill:rgb(90.980392%,33.333333%,40%);fill-opacity:1;" d="M 73.832031 97.917969 L 26.167969 97.917969 C 21.921875 97.945312 18.332031 94.777344 17.832031 90.5625 L 10.957031 31.730469 C 10.820312 30.542969 11.199219 29.355469 11.996094 28.46875 C 12.792969 27.578125 13.933594 27.074219 15.125 27.082031 L 84.917969 27.082031 C 86.109375 27.074219 87.25 27.578125 88.046875 28.46875 C 88.84375 29.355469 89.21875 30.542969 89.082031 31.730469 L 82.125 90.5625 C 81.628906 94.761719 78.0625 97.925781 73.832031 97.917969 Z M 73.832031 97.917969 "/>
<path style=" stroke:none;fill-rule:nonzero;fill:rgb(96.078431%,72.941176%,75.686275%);fill-opacity:1;" d="M 66.667969 39.582031 C 64.429688 39.585938 62.589844 37.820312 62.5 35.582031 L 62.5 21.457031 C 62.65625 18.011719 61.421875 14.644531 59.070312 12.117188 C 56.71875 9.589844 53.449219 8.113281 50 8.019531 C 46.550781 8.113281 43.28125 9.589844 40.929688 12.117188 C 38.578125 14.644531 37.34375 18.011719 37.5 21.457031 L 37.5 35.582031 C 37.5 37.882812 35.632812 39.75 33.332031 39.75 C 31.03125 39.75 29.167969 37.882812 29.167969 35.582031 L 29.167969 21.457031 C 29.167969 9.953125 38.492188 0.625 50 0.625 C 61.507812 0.625 70.832031 9.953125 70.832031 21.457031 L 70.832031 35.582031 C 70.742188 37.820312 68.90625 39.585938 66.667969 39.582031 Z M 66.667969 39.582031 "/>
</g>
</svg>
